<svg xmlns:xlink="http://www.w3.org/1999/xlink" width="500" xmlns="http://www.w3.org/2000/svg" height="500" id="screenshot-cd35ed29-3dda-8089-8001-8db1811caed8" viewBox="-0 -0 500 500" style="-webkit-print-color-adjust: exact;" fill="none" version="1.1"><g id="shape-cd35ed29-3dda-8089-8001-8db1811caed8"><defs><clipPath id="frame-clip-cd35ed29-3dda-8089-8001-8db1811caed8-45992848-25a1-8063-8001-8db2974ef0b5" class="frame-clip"><rect rx="0" ry="0" x="0" y="0" width="499.9999981754336" height="499.99999789678157" transform="matrix(1,0,0,1,0.000005,-0.000003)"/></clipPath></defs><g clip-path="url(#frame-clip-cd35ed29-3dda-8089-8001-8db1811caed8-45992848-25a1-8063-8001-8db2974ef0b5)"><clipPath id="frame-clip-cd35ed29-3dda-8089-8001-8db1811caed8-45992848-25a1-8063-8001-8db2974ef0b5" class="frame-clip"><rect rx="0" ry="0" x="0" y="0" width="499.9999981754336" height="499.99999789678157" transform="matrix(1,0,0,1,0.000005,-0.000003)"/></clipPath><g id="fills-cd35ed29-3dda-8089-8001-8db1811caed8"><rect rx="0" ry="0" x="0" y="0" transform="matrix(1,0,0,1,0.000005,-0.000003)" width="499.9999981754336" height="499.99999789678157" class="frame-background"/></g><g class="frame-children"><g id="shape-cd35ed29-3dda-8089-8001-8db216683439" width="1em" height="1em" preserveAspectRatio="xMidYMid meet" rx="0" ry="0" style="fill: rgb(0, 0, 0);"><g id="shape-cd35ed29-3dda-8089-8001-8db2166c1015"><g id="fills-cd35ed29-3dda-8089-8001-8db2166c1015"><path fill="currentColor" fill-rule="evenodd" rx="0" ry="0" d="M169.567,72.998C131.602,99.27,108.968,142.454,109,188.556C109,238.519,135.069,282.416,174.487,307.429C190.717,317.684,203.595,336.287,202.749,358.704L202.749,358.955L197.611,463.289C197.343,471.758,192.518,479.425,184.988,483.343C177.458,487.261,168.395,486.82,161.282,482.19C154.17,477.56,150.114,469.462,150.673,461.006L155.781,356.891C155.843,354.233,154.214,350.138,149.295,347.011C94.905,312.611,61.961,252.812,62,188.556C61.976,127.238,92.016,69.786,142.433,34.728C157.976,23.565,178.793,23.068,194.853,33.478C209.329,42.732,218.667,59.334,218.667,77.969L218.667,166.138C218.667,168.702,219.951,171.141,222.113,172.579L245.613,188.525C248.263,190.312,251.737,190.312,254.387,188.525L277.887,172.579C280.041,171.126,281.332,168.702,281.333,166.107L281.333,77.969C281.333,59.334,290.671,42.732,305.147,33.478C321.207,23.068,342.024,23.565,357.567,34.728C407.984,69.786,438.024,127.238,438,188.556C438.039,252.812,405.095,312.611,350.705,347.011C345.786,350.138,344.157,354.202,344.219,356.86L349.327,460.975C349.874,469.42,345.818,477.504,338.715,482.128C331.612,486.751,322.563,487.197,315.038,483.295C307.513,479.392,302.679,471.746,302.389,463.289L297.251,358.704C296.405,336.287,309.283,317.684,325.513,307.429C366.325,281.631,391.042,236.764,391,188.556C391.032,142.454,368.398,99.27,330.433,72.998C329.681,73.529,328.333,75.092,328.333,78L328.333,166.107C328.335,184.239,319.334,201.195,304.301,211.38L280.801,227.326C262.207,239.922,237.793,239.922,219.199,227.326L195.699,211.38C180.666,201.195,171.665,184.239,171.667,166.107L171.667,77.969C171.667,75.092,170.319,73.529,169.567,72.998ZZM169.881,72.841Z" style="fill: rgb(59, 130, 246); fill-opacity: 1;"/></g></g></g></g></g></g></svg>