<svg xmlns:xlink="http://www.w3.org/1999/xlink" width="500" xmlns="http://www.w3.org/2000/svg" height="500" id="screenshot-a3a8b550-4b46-11ed-a02b-7bda4de26e82" viewBox="-0 -0 500 500" style="-webkit-print-color-adjust: exact;" fill="none" version="1.1"><g id="shape-a3a8b550-4b46-11ed-a02b-7bda4de26e82"><defs><clipPath id="frame-clip-a3a8b550-4b46-11ed-a02b-7bda4de26e82-b081e490-4b46-11ed-947e-4daf15678d75" class="frame-clip"><rect rx="0" ry="0" x="0" y="0" width="499.9999958760099" height="499.99999212599516" transform="matrix(1,0,0,1,-0.000003,-0.000005)"/></clipPath></defs><g clip-path="url(#frame-clip-a3a8b550-4b46-11ed-a02b-7bda4de26e82-b081e490-4b46-11ed-947e-4daf15678d75)"><clipPath id="frame-clip-a3a8b550-4b46-11ed-a02b-7bda4de26e82-b081e490-4b46-11ed-947e-4daf15678d75" class="frame-clip"><rect rx="0" ry="0" x="0" y="0" width="499.9999958760099" height="499.99999212599516" transform="matrix(1,0,0,1,-0.000003,-0.000005)"/></clipPath><g id="fills-a3a8b550-4b46-11ed-a02b-7bda4de26e82"><rect rx="0" ry="0" x="0" y="0" transform="matrix(1,0,0,1,-0.000003,-0.000005)" width="499.9999958760099" height="499.99999212599516" class="frame-background"/></g><g class="frame-children"><g id="shape-a3a8b551-4b46-11ed-a02b-7bda4de26e82" width="1em" height="1em" preserveAspectRatio="xMidYMid meet" rx="0" ry="0" style="fill: rgb(0, 0, 0);"><g id="shape-a3a8b553-4b46-11ed-a02b-7bda4de26e82"><g id="fills-a3a8b553-4b46-11ed-a02b-7bda4de26e82"><path rx="0" ry="0" d="M413.063,391.836C417.672,402.762,422.594,413.882,430.094,423.214C434.118,428.269,439.157,432.857,445.329,435.035C451.969,437.406,459.04,436.396,465.329,433.518C470.915,430.952,473.766,426.791,473.962,420.726C474.43,405.172,470.524,390.008,467.204,374.921C464.04,360.418,462.477,345.681,460.172,330.984C458.961,323.362,443.961,328.767,439.235,330.167C431.5,332.5,423.883,335.844,416.969,340.004C414,341.793,411.227,343.659,409.274,346.576C407.828,348.792,407.242,350.619,406.617,353.108C403.258,366.328,407.907,379.704,413.063,391.836ZZM323.883,413.027C324.664,416.76,325.602,420.415,326.812,423.836C328.57,428.891,331.891,432.663,336.813,434.879C348.531,440.206,365.094,434.801,369.117,422.009C373.57,407.933,377.906,392.147,377.867,377.254C377.867,376.127,378.727,374.027,378.18,373.055C377.555,371.889,375.367,372.511,374.313,372.511C371.539,372.511,368.922,372.627,366.188,372.899C364.195,373.094,362.203,373.055,360.211,373.249C358.414,373.405,356.656,373.56,354.82,373.599C352.711,373.638,350.641,374.066,348.492,374.26C346.188,374.455,343.844,374.26,341.539,374.455C336.969,374.805,331.852,374.999,327.398,376.088C324.859,376.71,323.258,377.527,322.125,379.937C320.992,382.27,321.5,385.342,321.5,387.831C321.461,395.879,322.164,404.706,323.883,413.027ZZM214.351,432.741C215.21,437.873,216.148,442.967,217.046,448.06C217.632,451.443,217.945,455.176,219.078,458.442C226.812,480.45,247.203,491.843,265.601,477.884C274.547,471.079,275.484,458.403,275.523,448.099C275.562,438.068,275.64,427.997,275.367,417.965C275.133,409.139,275.562,399.223,273.414,390.669C272.711,387.792,269.859,386.742,267.203,386.625C259.586,386.431,251.89,386.781,244.312,387.442C238.414,387.947,232.515,389.58,226.734,390.708C222.046,391.641,217.32,393.663,213.531,396.502C208.57,400.273,211.695,413.727,212.281,418.859C212.828,423.564,213.57,428.152,214.351,432.741ZZM90.679,397.94C87.397,406.378,83.96,414.777,80.444,423.136C77.241,430.757,70.249,444.872,74.155,453.349C83.179,472.79,107.983,467.969,121.343,456.381C128.569,450.121,134.077,442.189,139.273,434.218C147.398,421.775,155.874,408.089,153.999,392.73C153.452,388.142,149.351,387.092,145.445,385.303C143.609,384.487,142.085,383.126,140.327,382.154C138.726,381.22,136.929,380.754,135.21,380.132C133.569,379.548,132.085,378.615,130.484,377.877C128.96,377.138,127.359,376.827,125.757,376.243C120.21,374.144,114.038,371.266,108.062,371.266C105.991,371.266,103.608,370.839,101.772,371.927C98.218,374.027,97.319,379.86,96.069,383.398C94.351,388.258,92.554,393.119,90.679,397.94ZZ" style="fill: rgb(47, 47, 47);"/></g></g><g id="shape-a3a8b554-4b46-11ed-a02b-7bda4de26e82"><g id="fills-a3a8b554-4b46-11ed-a02b-7bda4de26e82"><path rx="0" ry="0" d="M489.77,271.778C493.675,259.153,492.387,244.457,486.411,233.356C483.091,227.181,478.834,222.021,473.639,218.035C471.062,216.041,468.406,214.869,465.906,213.97C468.093,209.123,470.632,202.205,470.671,194.466C470.749,182.623,466.218,170.545,457.977,160.5C452.158,153.387,445.948,149.947,438.996,146.468C437.785,145.843,436.457,145.335,435.168,144.788C435.168,144.788,433.84,144.241,433.879,144.045C436.262,135.173,437.473,128.215,437.707,122.196C438.254,108.868,432.395,95.11,421.186,83.462C406.93,68.61,386.113,59.033,368.146,59.033C364.983,59.033,362.21,59.62,359.749,60.128L357.796,60.519C357.054,59.385,356.078,57.705,355.453,56.532C353.969,53.835,352.406,51.021,350.336,48.91C344.517,42.813,337.213,37.966,327.918,34.136C313.193,28.156,296.047,26.24,280.19,28.82C272.379,30.11,265.622,33.198,259.607,36.52C249.452,23.504,232.541,16,212.387,16C201.568,16,191.023,18.267,182.001,22.527C180.712,23.153,173.565,26.631,167.628,31.243C159.27,27.061,151.771,24.286,142.592,24.286C137.671,24.286,132.633,25.146,127.204,26.827C116.151,30.266,105.84,36.598,98.497,45.627C95.021,49.887,92.287,54.734,90.49,59.932C88.772,64.935,88.772,74.902,84.241,77.834C78.656,81.469,72.212,83.267,66.783,87.41C64.986,88.778,63.033,89.286,61.237,90.537C59.596,91.709,58.229,93.585,56.667,94.953C54.402,96.947,52.058,98.354,50.066,100.777C46.122,105.546,42.607,109.728,40.029,115.473C35.42,125.714,34.092,136.932,32.491,147.876C32.061,150.612,32.92,153.582,32.569,156.318C32.217,159.21,31.788,161.751,31.788,164.761C31.788,173.438,31.319,182.271,34.366,190.518C37.373,198.765,31.007,202.088,27.921,209.279C26.32,213.11,25.382,217.175,24.484,221.161C23.273,226.477,23,231.519,23,237.108C23,243.245,26.046,248.365,26.828,254.267C27.609,260.325,30.265,265.25,33.741,270.331C34.639,271.621,35.85,273.028,37.139,274.475L38.427,275.882L38.271,276.194C29.288,294.017,30.46,316.648,41.24,333.846C46.629,342.484,54.324,349.715,64.088,355.148C64.478,355.382,64.557,361.128,64.674,361.91C65.025,364.176,65.533,366.443,66.158,368.671C68.756,377.442,73.525,385.415,80.023,391.849C86.468,398.337,97.443,403.575,106.035,406.272C113.339,408.578,121.345,408.5,128.415,411.666C136.968,415.457,144.389,421.32,152.864,425.307C157.395,427.456,162.121,429.215,166.886,430.622C176.572,433.515,186.688,435,196.803,435C207.075,435,217.426,433.593,227.151,430.232C237.696,426.636,248.788,420.147,257.537,413.268C258.435,412.565,259.49,411.549,260.505,411.119C263.005,410.024,267.653,412.799,270.152,413.542C274.097,414.714,278.12,415.496,282.221,416.004C304.835,418.779,329.402,412.135,348.266,399.549C351.196,397.595,354.008,394.39,357.445,393.295C361.429,392.045,365.608,394.898,369.435,395.562C381.504,397.712,394.002,396.422,405.563,392.592C420.131,387.784,428.333,375.98,434.114,362.535C435.207,359.994,439.269,359.134,441.495,358.04C449.854,353.936,458.876,350.809,464.461,342.914C469.265,336.191,471.374,328.1,472.663,320.01C473.249,316.335,473.717,312.622,473.6,308.909C473.483,305.235,471.647,301.366,471.647,297.848C471.647,297.848,471.335,296.91,470.866,295.542C479.771,290.851,486.489,282.448,489.77,271.778ZZ" style="fill: rgb(224, 224, 224);"/></g></g><g id="shape-a3a8b555-4b46-11ed-a02b-7bda4de26e82"><g id="fills-a3a8b555-4b46-11ed-a02b-7bda4de26e82"><path rx="0" ry="0" d="M165.339,279.012C166.354,278.817,167.446,278.699,168.422,278.465C171.036,277.84,173.533,277.292,176.069,276.354C180.79,274.673,187.618,270.843,186.955,264.901C186.565,261.266,184.224,259.468,180.595,260.523C179.503,260.836,178.332,261.227,177.201,261.657C174.118,262.79,171.543,264.862,168.422,265.878C162.14,267.911,155.312,268.263,149.693,264.354C145.557,261.422,141.89,253.409,135.842,254.035C130.575,254.504,131.745,261.031,133.384,264.315C136.076,269.592,140.992,272.094,145.245,275.768L147.469,277.41L148.25,279.559L148.289,281.397C148.211,288.511,145.05,299.377,154.492,300.902C155.702,301.097,156.99,300.941,158.199,300.941L162.14,300.472C161.36,299.534,160.579,298.478,160.423,297.188C159.994,294.061,159.604,290.739,159.448,287.573C159.409,285.97,158.745,280.771,160.696,279.872C162.062,279.129,163.818,279.325,165.339,279.012ZL165.339,279.012Z" style="fill: rgb(224, 224, 224);"/></g></g><g id="shape-a3a8b556-4b46-11ed-a02b-7bda4de26e82"><g id="fills-a3a8b556-4b46-11ed-a02b-7bda4de26e82"><path rx="0" ry="0" d="M280.93,175.123C281.124,172.586,280.93,170.244,280.151,168.37C278.165,163.686,271.739,168.214,269.363,170.01C262.08,175.552,222.629,190.893,223.564,167.98C223.719,164.506,226.446,161.656,224.576,157.792C223.447,155.411,221.967,154.864,219.474,155.177C214.178,155.762,209.933,160.446,205.143,162.359C197.003,165.638,189.681,168.721,180.607,167.199C175.895,166.379,169.625,163.998,166.548,160.173C164.095,157.167,163.199,145.535,157.824,145.379C154.826,145.262,152.567,147.877,150.892,150.063C148.867,152.639,147.66,153.966,144.583,155.684C136.755,160.056,125.967,163.14,116.971,162.203C112.376,161.734,108.092,160.602,105.132,156.855C103.029,154.162,102.873,143.583,98.122,144.013C95.279,144.247,93.331,147.292,92.124,151.039C88.152,163.335,87.996,177.816,86.828,190.62C84.14,219.778,79.623,251.435,94.266,278.369C105.833,299.643,132.16,310.143,156.89,313.11C174.415,315.218,192.369,313.695,208.92,307.333C224.265,301.399,237.818,291.524,248.8,279.306C261.808,264.863,265.118,242.77,270.492,224.658C275.166,208.81,279.722,191.713,280.93,175.123ZL280.93,175.123ZM176.206,276.417C173.675,277.354,171.183,277.901,168.573,278.525C167.6,278.759,166.509,278.916,165.497,279.072C164.017,279.384,162.225,279.189,160.823,279.852C158.915,280.75,159.538,285.942,159.577,287.542C159.733,290.704,160.122,294.022,160.551,297.145C160.706,298.472,161.524,299.487,162.264,300.424L158.331,300.892C157.123,300.892,155.838,301.048,154.631,300.853C145.206,299.331,148.361,288.479,148.439,281.375L148.4,279.54L147.621,277.393L145.401,275.754C141.117,272.085,136.21,269.586,133.562,264.317C131.926,261.038,130.758,254.519,136.015,254.051C142.091,253.426,145.712,261.428,149.841,264.356C155.488,268.259,162.264,267.908,168.534,265.878C171.65,264.863,174.22,262.833,177.297,261.662C178.426,261.272,179.634,260.843,180.685,260.53C184.268,259.515,186.605,261.311,187.033,264.902C187.734,270.914,180.919,274.739,176.206,276.417ZL176.206,276.417Z" style="fill: rgb(47, 47, 47);"/></g></g><g id="shape-a3a8b557-4b46-11ed-a02b-7bda4de26e82"><g id="fills-a3a8b557-4b46-11ed-a02b-7bda4de26e82"><path fill="none" stroke-linecap="round" stroke-linejoin="round" stroke-miterlimit="10" rx="0" ry="0" d="M209.73,220.32C209.6,216.248,213.196,213.527,217.129,213.281C221.06,213.049,224.776,216.644,226.296,221.609C227.937,226.892,224.994,238.21,213.282,239.553C200.593,240.995,194.614,227.942,194.246,221.176C193.872,214.221,197.618,202.218,212.144,198.667C227.117,194.997,236.271,206.553,239.405,213.916M132.001,205.877C133.794,209.528,131.645,213.511,128.168,215.363C124.691,217.215,119.829,215.48,116.393,211.6C112.728,207.461,110.742,195.935,120.863,189.85C131.823,183.258,142.633,192.655,145.742,198.667C148.933,204.835,150.47,217.334,138.713,226.61C126.59,236.175,113.495,229.485,107.635,224.08" style="fill: none;"/></g><g id="strokes-a3a8b557-4b46-11ed-a02b-7bda4de26e82"><g class="stroke-shape"><path stroke-linecap="round" stroke-linejoin="round" stroke-miterlimit="10" rx="0" ry="0" d="M209.73,220.32C209.6,216.248,213.196,213.527,217.129,213.281C221.06,213.049,224.776,216.644,226.296,221.609C227.937,226.892,224.994,238.21,213.282,239.553C200.593,240.995,194.614,227.942,194.246,221.176C193.872,214.221,197.618,202.218,212.144,198.667C227.117,194.997,236.271,206.553,239.405,213.916M132.001,205.877C133.794,209.528,131.645,213.511,128.168,215.363C124.691,217.215,119.829,215.48,116.393,211.6C112.728,207.461,110.742,195.935,120.863,189.85C131.823,183.258,142.633,192.655,145.742,198.667C148.933,204.835,150.47,217.334,138.713,226.61C126.59,236.175,113.495,229.485,107.635,224.08" style="fill: none; stroke-width: 5; stroke: rgb(224, 224, 224);"/></g></g></g><g id="shape-a3a8b558-4b46-11ed-a02b-7bda4de26e82"><g id="fills-a3a8b558-4b46-11ed-a02b-7bda4de26e82"><path rx="0" ry="0" d="M81.63,184.565C79.674,182.422,79.792,182.851,77.757,184.448L75.606,186.551C73.807,188.498,71.538,190.874,68.369,192.627C66.179,193.795,62.776,195.236,58.903,195.236C54.678,195.236,51.275,193.406,48.85,190.601C46.972,188.381,45.642,185.577,45.486,182.228C45.29,178.411,46.503,175.373,47.755,173.114C45.564,169.959,43.921,166.454,42.474,162.793C41.222,159.911,40.244,156.912,39.384,153.835C38.249,149.94,37.389,145.967,36.724,142.073C35.824,137.126,35.589,132.024,36.02,127C35.629,127.312,35.198,127.623,34.807,127.935C23.307,137.048,14.74,150.291,10.555,162.364C5.548,176.58,3.083,208.401,22.446,222.928C25.028,224.875,27.962,226.511,31.404,227.758C31.6,227.835,31.795,227.835,31.952,227.913C35.237,229.043,38.523,229.783,41.848,230.25C43.96,230.523,46.034,230.834,48.068,230.834C68.487,230.834,83.077,217.553,85.268,196.989C85.737,192.705,84.133,187.408,81.63,184.565ZZM372.894,183.162C369.765,179.346,366.049,175.918,361.668,173.698C358.03,171.79,354.275,170.933,350.559,170.933C344.261,170.933,338.08,173.387,332.682,177.398C327.167,181.488,323.998,187.992,323.411,194.769C322.746,202.87,331.039,207.349,332.839,214.437C334.951,222.967,326.815,229.082,318.522,229.082L316.136,228.887C306.044,227.368,301.858,220.474,301.741,211.049C301.702,204.739,301.584,194.535,293.057,194.224L292.314,194.224C286.837,194.224,282.573,196.755,279.249,200.689C270.095,211.555,268.843,233.444,273.459,243.96C274.594,246.647,275.845,249.451,277.254,252.139C278.701,254.904,280.422,257.591,282.573,259.811C294.426,271.924,310.894,278,327.441,278C341.601,278,355.839,273.56,367.183,264.719C375.28,258.487,381.109,249.724,384.316,240.065C390.575,220.981,385.529,198.469,372.894,183.162ZZ" style="fill: rgb(120, 163, 173);"/></g></g></g></g></g></g></svg>